<svg width="20" height="20" viewBox="0 0 20 20" fill="none" xmlns="http://www.w3.org/2000/svg">
<g clip-path="url(#clip0_3061_543)">
<path d="M9.99994 6.95547C9.21596 6.95486 8.46385 7.26598 7.9092 7.82004C7.35455 8.3741 7.04279 9.1259 7.04248 9.90988C7.04202 10.6939 7.3533 11.4458 7.90752 12.0004C8.46174 12.5548 9.21354 12.8666 9.99752 12.8668C10.7815 12.8669 11.5335 12.5556 12.0878 12.0013C12.6423 11.447 12.9538 10.6951 12.9538 9.91113C12.9533 9.12758 12.642 8.37641 12.0881 7.82234C11.5344 7.26812 10.7834 6.95641 9.99998 6.95551L9.99994 6.95547ZM9.99994 11.225C9.65067 11.2255 9.31572 11.0872 9.06854 10.8405C8.8215 10.5939 8.68264 10.2591 8.68234 9.91001C8.68218 9.56089 8.82089 9.22594 9.06777 8.97907C9.31466 8.73218 9.64961 8.59348 9.99871 8.59378C10.3478 8.59394 10.6826 8.73279 10.9292 8.97998C11.1759 9.22702 11.3142 9.56209 11.3137 9.91123C11.3132 10.2594 11.1747 10.5935 10.9284 10.8397C10.682 11.086 10.3481 11.2246 9.9999 11.225L9.99994 11.225Z" fill="black"/>
<path d="M17.471 7.50742L18.2254 6.66559C18.4207 6.44708 18.4848 6.14113 18.3932 5.86281C18.3017 5.58434 18.0687 5.37606 17.7818 5.31609C17.4951 5.25613 17.198 5.35378 17.0027 5.57214L16.2738 6.38116V6.38131C15.722 5.93272 15.124 5.5442 14.4899 5.22241L14.9819 4.31131V4.31116C15.0873 4.05909 15.0601 3.77116 14.9094 3.54319C14.7588 3.31508 14.5046 3.17713 14.2313 3.17515C13.958 3.17317 13.7018 3.30744 13.5478 3.53312L12.9665 4.60461C12.2679 4.39266 11.548 4.25823 10.82 4.20375V3.16875C10.82 2.87578 10.6636 2.60508 10.41 2.45859C10.1563 2.31211 9.84363 2.31211 9.59004 2.45859C9.33628 2.60508 9.18004 2.87578 9.18004 3.16875V4.20191C8.45187 4.25638 7.73215 4.39081 7.03344 4.60277L6.45207 3.53312C6.31276 3.2754 6.04648 3.11152 5.75351 3.10312C5.4607 3.09488 5.18559 3.24366 5.03191 3.49314C4.87841 3.74277 4.86956 4.05529 5.00887 4.31298L5.50082 5.22408C4.86684 5.54604 4.26868 5.93454 3.71692 6.38314L2.98801 5.57411V5.57396C2.7927 5.35561 2.49575 5.25795 2.20891 5.31792C1.9222 5.37789 1.68903 5.58617 1.59766 5.86464C1.50611 6.14296 1.57004 6.4489 1.76536 6.66741L2.52891 7.50741C1.95899 8.12296 1.46903 8.80808 1.0711 9.54643C0.95742 9.77608 0.95742 10.0457 1.0711 10.2753C1.18219 10.4958 3.82989 15.6492 10 15.6492C16.1699 15.6493 18.8234 10.496 18.9289 10.2753C19.0426 10.0457 19.0426 9.77608 18.9289 9.54643C18.5309 8.80808 18.0411 8.12296 17.4711 7.50741L17.471 7.50742ZM9.9999 14.0094C5.68311 14.0094 3.41631 10.9881 2.74561 9.91133C3.41807 8.84703 5.71221 5.80938 9.9999 5.80938C11.0334 5.80236 12.0591 5.98775 13.0248 6.3561L13.0978 6.38524H13.0976C14.0679 6.77465 14.9571 7.34122 15.7198 8.05622C15.7453 8.08536 15.7708 8.11634 15.7999 8.14365C15.8291 8.17096 15.8401 8.17279 15.8582 8.18744L15.8584 8.18729C16.3914 8.70366 16.86 9.28241 17.2541 9.91123C16.5818 10.9735 14.2876 14.0093 9.99979 14.0093L9.9999 14.0094Z" fill="black"/>
</g>
<defs>
<clipPath id="clip0_3061_543">
<rect width="20" height="20" fill="white"/>
</clipPath>
</defs>
</svg>
