<svg width="32" height="32" viewBox="0 0 32 32" fill="none" xmlns="http://www.w3.org/2000/svg">
<path d="M5.33331 22.3333V26.6L10.1333 29.2666L16 29.8L24 28.2L26.6666 26.6L26.1333 22.3333L24 19.1333H20.2666H11.2C10.1333 19.4889 7.89331 20.2 7.46665 20.2C7.03998 20.2 5.86665 21.6222 5.33331 22.3333Z" fill="black"/>
<path d="M26.6666 26.8667V24.2C26.6666 22.7855 26.1047 21.429 25.1045 20.4288C24.1044 19.4286 22.7478 18.8667 21.3333 18.8667H10.6666C9.25216 18.8667 7.8956 19.4286 6.89541 20.4288C5.89522 21.429 5.33331 22.7855 5.33331 24.2V26.8667" stroke="black" stroke-width="2" stroke-linecap="round" stroke-linejoin="round"/>
<path d="M16 13.5334C18.9455 13.5334 21.3334 11.1456 21.3334 8.20003C21.3334 5.25451 18.9455 2.8667 16 2.8667C13.0545 2.8667 10.6667 5.25451 10.6667 8.20003C10.6667 11.1456 13.0545 13.5334 16 13.5334Z" fill="black" stroke="black" stroke-width="2" stroke-linecap="round" stroke-linejoin="round"/>
</svg>
