<svg width="32" height="32" viewBox="0 0 32 32" fill="none" xmlns="http://www.w3.org/2000/svg">
<path d="M5.67001 0C2.52902 0 0 2.52902 0 5.67001V26.33C0 29.471 2.52902 32 5.67001 32H20.876L32 16.004L20.876 3.2e-05H5.67001V0ZM14.185 5.84201H17.798C18.0198 5.84201 18.147 5.92313 18.147 6.11401V26.026C18.147 26.1615 18.0832 26.243 17.893 26.243H15.928C15.8021 26.243 15.707 26.1343 15.707 26.053V18.681H14.121L9.71599 26.053C9.65276 26.1886 9.52617 26.243 9.33599 26.243H7.08598C6.83318 26.243 6.67465 26.053 6.83299 25.808L11.681 18.3C9.083 17.3207 7.62498 15.335 7.62498 12.642C7.62498 8.15353 10.6359 5.84198 14.185 5.84198L14.185 5.84201ZM14.09 7.58201C12.1568 7.58201 10.255 8.96927 10.255 12.37C10.255 15.6344 12.2834 16.94 14.375 16.94H15.707V7.58201H14.09Z" fill="#FFC107"/>
</svg>
